<?xml version="1.0" standalone="no"?>
<!DOCTYPE svg PUBLIC "-//W3C//DTD SVG 20010904//EN"
 "http://www.w3.org/TR/2001/REC-SVG-20010904/DTD/svg10.dtd">
<svg version="1.0" xmlns="http://www.w3.org/2000/svg"
 width="250.000000pt" height="167.000000pt" viewBox="0 0 250.000000 167.000000"
 preserveAspectRatio="xMidYMid meet">
<metadata>
Created by potrace 1.15, written by Peter Selinger 2001-2017
</metadata>
<g transform="translate(0.000000,167.000000) scale(0.100000,-0.100000)"
fill="#000000" stroke="none">
<path d="M142 1644 c-57 -28 -96 -69 -123 -129 -17 -37 -19 -82 -19 -680 0
-598 2 -643 19 -680 27 -60 66 -101 123 -129 l52 -26 1055 0 c1000 0 1058 1
1096 19 60 27 101 66 129 123 l26 52 0 641 0 641 -26 52 c-28 57 -69 96 -129
123 -38 18 -96 19 -1096 19 l-1055 0 -52 -26z m2172 -107 c47 -27 76 -77 76
-134 l0 -43 -1140 0 -1140 0 0 43 c0 57 29 107 76 134 l39 23 1025 0 1025 0
39 -23z m76 -387 l0 -100 -1140 0 -1140 0 0 100 0 100 1140 0 1140 0 0 -100z
m0 -573 c0 -398 -1 -401 -76 -444 l-39 -23 -1025 0 -1025 0 -39 23 c-75 43
-76 46 -76 444 l0 353 1140 0 1140 0 0 -353z"/>
<path d="M1445 826 c-87 -40 -123 -152 -72 -227 12 -18 38 -44 57 -57 29 -20
44 -23 93 -20 46 4 63 10 88 34 43 40 59 76 59 127 0 48 -26 96 -72 130 -34
25 -113 32 -153 13z"/>
<path d="M1888 823 c-41 -48 -328 -544 -328 -567 0 -35 42 -63 73 -49 29 14
347 541 347 576 0 51 -60 76 -92 40z"/>
<path d="M326 614 c-23 -22 -20 -71 3 -84 12 -6 110 -10 249 -10 209 0 230 2
245 18 22 24 21 55 -1 75 -16 15 -49 17 -250 17 -196 0 -233 -2 -246 -16z"/>
<path d="M1960 508 c-85 -43 -113 -141 -65 -224 26 -45 90 -84 136 -84 39 0
112 42 136 79 32 47 32 125 0 172 -24 37 -97 79 -137 79 -14 0 -46 -10 -70
-22z"/>
<path d="M326 404 c-9 -8 -16 -26 -16 -39 0 -55 -2 -55 419 -55 363 0 389 1
404 18 22 24 21 55 -1 75 -17 15 -59 17 -405 17 -337 0 -388 -2 -401 -16z"/>
</g>
</svg>
