<?xml version="1.0" standalone="no"?>
<!DOCTYPE svg PUBLIC "-//W3C//DTD SVG 20010904//EN"
 "http://www.w3.org/TR/2001/REC-SVG-20010904/DTD/svg10.dtd">
<svg version="1.0" xmlns="http://www.w3.org/2000/svg"
 width="250.000000pt" height="223.000000pt" viewBox="0 0 250.000000 223.000000"
 preserveAspectRatio="xMidYMid meet">
<metadata>
Created by potrace 1.15, written by Peter Selinger 2001-2017
</metadata>
<g transform="translate(0.000000,223.000000) scale(0.100000,-0.100000)"
fill="#000000" stroke="none">
<path d="M485 2221 c-30 -13 -71 -54 -91 -92 -17 -30 -19 -65 -22 -294 -2
-143 -4 -261 -5 -261 -1 -1 -55 -4 -119 -7 -137 -5 -172 -21 -216 -95 l-27
-47 -3 -637 c-2 -618 -2 -639 17 -676 23 -44 81 -99 114 -107 12 -3 481 -4
1043 -3 l1021 3 36 28 c21 16 47 47 58 70 20 39 21 56 23 364 l1 323 30 0 c39
0 86 29 121 76 l29 37 3 581 c2 320 0 596 -3 615 -4 22 -23 50 -55 82 l-49 49
-943 -1 c-519 0 -952 -4 -963 -8z m1870 -76 c47 -9 65 -38 65 -106 l0 -59
-984 0 -984 0 2 53 c3 62 17 91 54 112 24 14 123 15 922 11 492 -3 909 -8 925
-11z m65 -837 c-1 -302 -3 -387 -14 -400 -11 -15 -85 -54 -87 -46 0 2 -2 127
-3 278 -3 254 -5 278 -24 315 -21 42 -47 69 -96 100 -28 17 -52 18 -414 11
-211 -4 -594 -4 -853 0 l-469 7 0 59 0 58 980 0 980 0 0 -382z m-219 146 l31
-31 0 -644 -1 -644 -30 -27 -31 -28 -1014 0 -1014 0 -32 31 -31 31 3 643 3
643 24 26 c22 24 31 26 130 29 58 2 517 3 1018 3 l913 -1 31 -31z"/>
<path d="M275 1325 c-24 -23 -25 -27 -22 -164 2 -119 5 -143 20 -158 16 -16
42 -18 250 -19 128 -1 247 1 265 3 50 8 58 36 57 190 0 113 -3 135 -18 150
-16 16 -44 18 -273 20 l-255 3 -24 -25z"/>
<path d="M272 844 c-20 -5 -23 -11 -20 -42 l3 -37 178 -3 177 -2 0 40 0 40
-53 0 c-30 0 -101 2 -158 4 -57 3 -114 2 -127 0z"/>
<path d="M1225 832 c-3 -7 -5 -27 -5 -43 l0 -29 178 2 177 3 3 38 3 37 -88 2
c-236 6 -262 5 -268 -10z"/>
<path d="M1714 836 c-3 -8 -4 -27 -2 -43 l3 -28 171 -3 172 -2 6 24 c11 46 1
53 -96 60 -156 11 -248 8 -254 -8z"/>
<path d="M740 800 l0 -40 175 0 175 0 0 40 0 40 -175 0 -175 0 0 -40z"/>
<path d="M1590 611 c-125 -38 -202 -145 -186 -259 7 -53 25 -88 67 -130 65
-66 154 -88 232 -58 39 15 48 15 87 1 60 -21 107 -19 165 9 119 55 170 183
118 296 -52 117 -178 172 -288 126 -28 -12 -39 -12 -86 5 -59 20 -71 21 -109
10z m346 -97 c72 -34 100 -122 63 -200 -24 -51 -83 -87 -137 -83 -52 4 -53 6
-33 42 38 66 44 102 26 160 -10 28 -21 56 -26 62 -33 36 43 49 107 19z"/>
</g>
</svg>
