<?xml version="1.0" standalone="no"?>
<!DOCTYPE svg PUBLIC "-//W3C//DTD SVG 20010904//EN"
 "http://www.w3.org/TR/2001/REC-SVG-20010904/DTD/svg10.dtd">
<svg version="1.0" xmlns="http://www.w3.org/2000/svg"
 width="250.000000pt" height="250.000000pt" viewBox="0 0 250.000000 250.000000"
 preserveAspectRatio="xMidYMid meet">
<metadata>
Created by potrace 1.15, written by Peter Selinger 2001-2017
</metadata>
<g transform="translate(0.000000,250.000000) scale(0.100000,-0.100000)"
fill="#000000" stroke="none">
<path d="M250 2295 l0 -205 -50 0 -50 0 0 -60 0 -60 50 0 50 0 0 -95 0 -95
-50 0 -50 0 0 -60 0 -60 50 0 50 0 0 -100 0 -100 -50 0 -50 0 0 -55 0 -55 50
0 50 0 0 -100 0 -100 -50 0 -50 0 0 -55 0 -55 50 0 50 0 0 -100 0 -100 -50 0
-50 0 0 -60 0 -60 50 0 50 0 0 -95 0 -95 -50 0 -50 0 0 -60 0 -60 50 0 50 0 0
-205 0 -205 945 0 945 0 0 229 0 228 55 6 c71 7 137 45 173 99 l27 42 3 735 3
735 -26 52 c-15 31 -40 62 -63 77 -39 27 -132 53 -157 43 -13 -5 -15 15 -15
124 l0 130 -945 0 -945 0 0 -205z m1780 -1045 l0 -1140 -830 0 -830 0 0 150 0
150 50 0 50 0 0 60 0 60 -50 0 -50 0 0 95 0 95 50 0 50 0 0 60 0 60 -50 0 -50
0 0 100 0 100 50 0 50 0 0 55 0 55 -50 0 -50 0 0 100 0 100 50 0 50 0 0 55 0
55 -50 0 -50 0 0 100 0 100 50 0 50 0 0 60 0 60 -50 0 -50 0 0 95 0 95 50 0
50 0 0 60 0 60 -50 0 -50 0 0 150 0 150 830 0 830 0 0 -1140z m222 851 l33
-29 4 -121 3 -121 -76 0 -76 0 0 150 0 150 40 0 c30 0 48 -7 72 -29z m38 -541
l0 -150 -75 0 -75 0 0 150 0 150 75 0 75 0 0 -150z m0 -409 l0 -149 -75 -4
-75 -3 0 153 0 152 75 0 75 0 0 -149z m-2 -388 c-4 -125 -13 -153 -55 -172
-13 -6 -39 -11 -58 -11 l-35 0 0 150 0 150 76 0 76 0 -4 -117z"/>
<path d="M880 1825 l0 -265 370 0 370 0 0 265 0 265 -370 0 -370 0 0 -265z
m620 -5 l0 -150 -250 0 -250 0 0 150 0 150 250 0 250 0 0 -150z"/>
</g>
</svg>
